<svg width="163" height="57" viewBox="0 0 163 57" fill="none" xmlns="http://www.w3.org/2000/svg">
<path d="M81.2439 20.1035C81.2439 22.1667 80.4179 24.1454 78.9476 25.6043C77.4772 27.0632 75.483 27.8828 73.4036 27.8828C71.3242 27.8828 69.33 27.0632 67.8596 25.6043C66.3893 24.1454 65.5632 22.1667 65.5632 20.1035C65.5632 18.0403 66.3893 16.0616 67.8596 14.6027C69.33 13.1438 71.3242 12.3242 73.4036 12.3242C75.483 12.3242 77.4772 13.1438 78.9476 14.6027C80.4179 16.0616 81.2439 18.0403 81.2439 20.1035ZM78.1504 20.0982C78.1504 18.847 77.6495 17.647 76.7578 16.7623C75.8661 15.8775 74.6567 15.3805 73.3956 15.3805C72.1346 15.3805 70.9252 15.8775 70.0335 16.7623C69.1418 17.647 68.6408 18.847 68.6408 20.0982C68.6408 21.3495 69.1418 22.5494 70.0335 23.4342C70.9252 24.3189 72.1346 24.816 73.3956 24.816C74.6567 24.816 75.8661 24.3189 76.7578 23.4342C77.6495 22.5494 78.1504 21.3495 78.1504 20.0982Z" fill="#006A87"/>
<path d="M86.1532 21.8227L86.1452 27.1903C86.1452 27.315 86.0953 27.4346 86.0064 27.5228C85.9175 27.611 85.797 27.6605 85.6713 27.6605H83.5948C83.4698 27.6605 83.3499 27.6113 83.2616 27.5236C83.1732 27.4359 83.1235 27.317 83.1235 27.193V13.0053C83.1235 12.9517 83.1343 12.8986 83.1552 12.8491C83.1761 12.7995 83.2067 12.7546 83.2453 12.7168C83.2839 12.6789 83.3297 12.649 83.3801 12.6288C83.4305 12.6085 83.4844 12.5982 83.5388 12.5985C85.5994 12.6197 88.5599 12.3185 90.2158 12.9235C92.2551 13.671 93.4744 15.882 93.0511 17.9793C92.7662 19.3873 91.8531 20.1929 90.7323 21.0541C90.6811 21.0933 90.6444 21.1483 90.628 21.2105C90.6117 21.2726 90.6165 21.3383 90.6418 21.3975L93.1017 27.0767C93.1294 27.14 93.1407 27.209 93.1347 27.2778C93.1288 27.3465 93.1056 27.4127 93.0674 27.4705C93.0291 27.5283 92.977 27.576 92.9156 27.6091C92.8543 27.6423 92.7856 27.6599 92.7157 27.6605H90.4501C90.3122 27.6605 90.1775 27.62 90.0633 27.5443C89.949 27.4686 89.8603 27.361 89.8085 27.2352L87.5802 21.9099C87.5477 21.8331 87.4932 21.7676 87.4235 21.7216C87.3539 21.6755 87.2722 21.651 87.1888 21.651H86.3236C86.2784 21.651 86.235 21.6691 86.2031 21.7013C86.1711 21.7335 86.1532 21.7772 86.1532 21.8227ZM86.1532 15.808L86.1479 18.3756C86.1479 18.4386 86.1731 18.4991 86.218 18.5437C86.263 18.5882 86.3239 18.6133 86.3875 18.6133L88.4134 18.6159C88.6306 18.6163 88.8457 18.5788 89.0464 18.5054C89.2471 18.4321 89.4296 18.3244 89.5834 18.1885C89.7372 18.0526 89.8592 17.8912 89.9426 17.7134C90.026 17.5357 90.0691 17.3451 90.0694 17.1525V17.0416C90.07 16.6528 89.8964 16.2797 89.5869 16.0043C89.2774 15.7288 88.8572 15.5737 88.4188 15.5729L86.3928 15.5703C86.3292 15.5703 86.2683 15.5953 86.2234 15.6399C86.1784 15.6845 86.1532 15.7449 86.1532 15.808Z" fill="#006A87"/>
<path d="M104.845 20.0825C106.29 21.7643 106.504 23.5473 105.489 25.4316C104.821 26.6679 103.493 27.6558 102.103 27.6584C100.17 27.6637 98.2621 27.6637 96.379 27.6584C96.2554 27.6584 96.1369 27.6097 96.0495 27.523C95.9622 27.4364 95.9131 27.3188 95.9131 27.1962V13.0085C95.9131 12.9025 95.9554 12.8008 96.0307 12.7256C96.106 12.6503 96.2082 12.6077 96.3151 12.607C97.6799 12.6035 99.0483 12.6026 100.42 12.6044C101.849 12.6079 102.862 12.7453 103.458 13.0165C104.596 13.5325 105.347 14.4781 105.713 15.8535C106.043 17.0967 105.747 18.3999 104.826 19.7629C104.752 19.8756 104.758 19.9822 104.845 20.0825ZM98.8868 15.7689V18.1674C98.8868 18.1924 98.8918 18.2172 98.9014 18.2402C98.9111 18.2633 98.9252 18.2843 98.943 18.3019C98.9608 18.3196 98.9819 18.3336 99.0052 18.3432C99.0284 18.3527 99.0533 18.3576 99.0785 18.3576H101.432C101.832 18.3576 102.215 18.2143 102.497 17.9592C102.78 17.7041 102.939 17.358 102.939 16.9973V16.9391C102.939 16.5783 102.78 16.2323 102.497 15.9772C102.215 15.7221 101.832 15.5788 101.432 15.5788H99.0785C99.0277 15.5788 98.9789 15.5988 98.943 15.6345C98.907 15.6701 98.8868 15.7185 98.8868 15.7689ZM98.8815 21.5988L98.8922 24.4358C98.8929 24.4886 98.9145 24.539 98.9524 24.576C98.9902 24.6131 99.0413 24.6339 99.0945 24.6339L101.517 24.626C101.717 24.6253 101.915 24.585 102.1 24.5075C102.284 24.43 102.451 24.3168 102.592 24.1743C102.733 24.0318 102.845 23.8628 102.921 23.677C102.997 23.4911 103.035 23.2921 103.035 23.0912V22.9116C103.033 22.506 102.871 22.1175 102.585 21.8317C102.298 21.5459 101.91 21.3861 101.506 21.3875L99.0838 21.3954C99.057 21.3954 99.0305 21.4007 99.0058 21.4109C98.9811 21.4212 98.9586 21.4362 98.9398 21.4551C98.921 21.474 98.9061 21.4965 98.8961 21.5211C98.8861 21.5458 98.8812 21.5722 98.8815 21.5988Z" fill="#006A87"/>
<path d="M111.348 12.6064H109.251C108.99 12.6064 108.779 12.8158 108.779 13.074V27.1903C108.779 27.4485 108.99 27.6578 109.251 27.6578H111.348C111.609 27.6578 111.82 27.4485 111.82 27.1903V13.074C111.82 12.8158 111.609 12.6064 111.348 12.6064Z" fill="#006A87"/>
<path d="M117.643 15.5788L114.794 15.5736C114.702 15.5736 114.614 15.5375 114.548 15.4731C114.483 15.4088 114.446 15.3215 114.445 15.2302L114.44 13.0219C114.44 12.9112 114.484 12.805 114.562 12.7267C114.641 12.6485 114.747 12.6045 114.858 12.6045H123.8C123.907 12.6045 124.009 12.6465 124.085 12.7213C124.16 12.7961 124.202 12.8976 124.202 13.0034V15.1773C124.202 15.2827 124.16 15.3837 124.085 15.4584C124.01 15.5332 123.907 15.5755 123.8 15.5762H120.994C120.957 15.5762 120.921 15.591 120.895 15.6172C120.868 15.6435 120.853 15.6791 120.853 15.7162L120.851 27.2068C120.851 27.3273 120.803 27.4429 120.717 27.5281C120.632 27.6133 120.516 27.6612 120.395 27.6612H118.274C118.15 27.6612 118.032 27.6125 117.944 27.5258C117.857 27.4391 117.808 27.3215 117.808 27.1989V15.7426C117.808 15.7211 117.803 15.6998 117.795 15.6799C117.787 15.6601 117.775 15.642 117.759 15.6268C117.744 15.6116 117.726 15.5995 117.706 15.5913C117.686 15.5831 117.664 15.5788 117.643 15.5788Z" fill="#006A87"/>
<path d="M131.605 24.7555H128.423C128.34 24.7556 128.259 24.7827 128.193 24.8329C128.127 24.883 128.08 24.9533 128.058 25.0329L127.414 27.3838C127.392 27.4634 127.345 27.5337 127.279 27.5838C127.213 27.6339 127.132 27.6611 127.049 27.6612H124.675C124.617 27.6611 124.559 27.6478 124.507 27.6223C124.455 27.5968 124.41 27.5598 124.375 27.5141C124.339 27.4683 124.315 27.4152 124.304 27.3587C124.293 27.3022 124.295 27.2439 124.31 27.1883L128.194 12.8819C128.216 12.8023 128.263 12.732 128.329 12.6819C128.395 12.6317 128.476 12.6045 128.559 12.6045H131.565C131.648 12.6045 131.728 12.6317 131.794 12.6819C131.86 12.732 131.908 12.8023 131.929 12.8819L135.782 27.1883C135.797 27.2439 135.799 27.3022 135.788 27.3587C135.776 27.4152 135.752 27.4683 135.717 27.5141C135.682 27.5598 135.636 27.5968 135.584 27.6223C135.532 27.6478 135.475 27.6611 135.417 27.6612H133.045C132.964 27.6612 132.885 27.6353 132.819 27.5872C132.754 27.5392 132.706 27.4715 132.683 27.3944L131.967 25.0223C131.943 24.9451 131.895 24.8775 131.83 24.8295C131.765 24.7814 131.686 24.7555 131.605 24.7555ZM128.849 21.6068C128.845 21.6283 128.845 21.6505 128.851 21.6717C128.856 21.693 128.866 21.7128 128.88 21.7297C128.894 21.7467 128.912 21.7603 128.932 21.7696C128.952 21.779 128.973 21.7838 128.996 21.7838H131.083C131.105 21.7838 131.127 21.779 131.147 21.7696C131.167 21.7603 131.184 21.7467 131.198 21.7297C131.212 21.7128 131.222 21.693 131.228 21.6717C131.233 21.6505 131.233 21.6283 131.229 21.6068L130.186 16.4532C130.179 16.4194 130.161 16.3889 130.134 16.367C130.107 16.3451 130.074 16.3331 130.039 16.3331C130.004 16.3331 129.971 16.3451 129.944 16.367C129.917 16.3889 129.899 16.4194 129.893 16.4532L128.849 21.6068Z" fill="#006A87"/>
<path d="M141.241 24.4913C141.241 24.5257 141.255 24.5586 141.28 24.5829C141.305 24.6071 141.339 24.6208 141.375 24.6208L145.972 24.6234C146.098 24.6241 146.217 24.6737 146.306 24.7613C146.394 24.8489 146.444 24.9674 146.444 25.091L146.441 27.2597C146.441 27.3662 146.398 27.4683 146.322 27.5436C146.246 27.6189 146.144 27.6612 146.036 27.6612H138.656C138.535 27.6612 138.418 27.6136 138.333 27.5289C138.247 27.4442 138.198 27.3293 138.198 27.2095V13.1566C138.198 12.7885 138.384 12.6045 138.755 12.6045H140.776C140.899 12.6045 141.018 12.6532 141.105 12.7399C141.192 12.8266 141.241 12.9442 141.241 13.0668V24.4913Z" fill="#006A87"/>
<path d="M127.713 41.1963C127.894 43.0586 130.378 43.1035 131.424 42.1604C132.596 41.1038 131.656 39.7831 130.285 39.4476C128.658 39.0487 126.635 38.568 125.626 37.2155C124.431 35.6121 124.564 33.491 125.775 31.9483C126.821 30.6143 128.597 30.0755 130.274 30.2208C132.952 30.4532 134.656 32.223 134.776 34.9781C134.779 35.0398 134.769 35.1014 134.747 35.1591C134.725 35.2169 134.692 35.2696 134.649 35.3141C134.606 35.3586 134.554 35.3939 134.497 35.4179C134.439 35.4419 134.378 35.454 134.316 35.4536L131.994 35.451C131.923 35.4503 131.855 35.4224 131.805 35.3732C131.754 35.3239 131.725 35.2571 131.722 35.1868C131.675 33.8846 131.302 33.24 129.92 33.0868C127.623 32.8306 126.97 35.4959 129.598 36.0955C130.581 36.3209 131.535 36.6353 132.46 37.0385C135.096 38.1902 135.806 41.4895 134.201 43.7137C133.035 45.325 131.297 45.6974 129.353 45.634C126.278 45.5363 124.428 43.3122 124.67 40.2586C124.677 40.1733 124.717 40.094 124.78 40.0362C124.843 39.9785 124.925 39.9466 125.011 39.9468L127.194 39.9442C127.308 39.9439 127.417 39.9865 127.5 40.0634C127.584 40.1404 127.635 40.2459 127.644 40.3589C127.662 40.6231 127.685 40.9022 127.713 41.1963Z" fill="#006A87"/>
<path d="M141.64 42.6517C142.998 43.0294 144.867 42.3611 144.51 40.6652C144.403 40.1528 143.828 39.6667 143.37 39.5532C141.571 39.1015 139.481 38.6841 138.373 37.3052C137.111 35.7309 137.197 33.5833 138.421 32.0195C139.316 30.8766 140.611 30.2779 142.308 30.2233C145.239 30.1308 147.563 32.1226 147.406 35.0969C147.402 35.1932 147.36 35.2839 147.289 35.3503C147.219 35.4167 147.125 35.4536 147.028 35.4535L144.699 35.4509C144.618 35.4509 144.541 35.4197 144.483 35.364C144.426 35.3082 144.392 35.2323 144.39 35.1524C144.369 34.3573 144.201 33.5226 143.336 33.2399C140.634 32.3656 139.207 35.4139 142.3 36.1297C144.512 36.6396 147.276 37.4505 147.555 40.1475C147.868 43.1289 146.581 44.9419 143.695 45.5864C142.963 45.7502 141.32 45.6736 140.482 45.3751C138.317 44.6073 137.256 42.9739 137.3 40.4751C137.306 40.0841 137.508 39.8948 137.907 39.9071C138.553 39.9265 139.223 39.9423 139.917 39.9547C140.016 39.9566 140.109 39.9955 140.18 40.0636C140.251 40.1317 140.293 40.2239 140.298 40.3218C140.351 41.4049 140.373 42.2977 141.64 42.6517Z" fill="#006A87"/>
<path d="M69.0925 38.6178C69.0925 39.2007 69.1919 39.2183 69.3907 38.6706L72.3165 30.6245C72.3391 30.5635 72.3801 30.511 72.434 30.4741C72.4878 30.4372 72.5519 30.4178 72.6174 30.4185L74.6327 30.4422C74.7758 30.4436 74.9126 30.501 75.0133 30.6019C75.114 30.7028 75.1705 30.8391 75.1705 30.9811V38.5623C75.1705 39.1892 75.2769 39.2077 75.4899 38.6178L78.3891 30.6456C78.413 30.5786 78.4574 30.5207 78.5161 30.4799C78.5749 30.4392 78.6449 30.4177 78.7166 30.4185L80.8757 30.4422C80.9236 30.4427 80.9706 30.4545 81.0129 30.4768C81.0552 30.4991 81.0915 30.5311 81.1186 30.5703C81.1458 30.6094 81.163 30.6544 81.1689 30.7016C81.1749 30.7487 81.1692 30.7966 81.1526 30.8411L75.8839 45.0552C75.837 45.183 75.7515 45.2934 75.6391 45.3714C75.5267 45.4493 75.3928 45.4911 75.2557 45.491H73.3468C72.9688 45.491 72.7797 45.3035 72.7797 44.9284L72.7824 37.5664C72.7824 37.533 72.7655 37.5171 72.7318 37.5189L72.644 37.5215C72.6191 37.5215 72.6023 37.533 72.5934 37.5559L69.6516 45.0604C69.6013 45.1873 69.5138 45.2962 69.4003 45.373C69.2868 45.4498 69.1527 45.4909 69.0153 45.491H66.763C66.7022 45.491 66.642 45.4791 66.5858 45.456C66.5296 45.4329 66.4785 45.3991 66.4355 45.3564C66.3925 45.3137 66.3583 45.263 66.3351 45.2073C66.3118 45.1515 66.2998 45.0917 66.2998 45.0314V30.8939C66.2998 30.772 66.3486 30.6551 66.4355 30.5689C66.5224 30.4827 66.6402 30.4343 66.763 30.4343H68.624C68.7482 30.4343 68.8674 30.483 68.9553 30.5697C69.0432 30.6564 69.0925 30.774 69.0925 30.8966V38.6178Z" fill="#006A87"/>
<path d="M103.774 37.5297C103.762 37.537 103.751 37.5474 103.744 37.5599C103.737 37.5724 103.734 37.5866 103.734 37.601V44.9788C103.734 45.3205 103.562 45.4913 103.22 45.4913H101.17C101.046 45.4913 100.927 45.4423 100.839 45.3551C100.751 45.2679 100.701 45.1497 100.701 45.0264V30.9048C100.701 30.7819 100.75 30.6641 100.837 30.577C100.924 30.4899 101.042 30.4406 101.165 30.4399L103.854 30.4214C103.934 30.4215 104.012 30.4462 104.078 30.492C104.144 30.5379 104.194 30.6027 104.221 30.6776L107.104 38.618C107.319 39.2115 107.426 39.193 107.426 38.5626V30.9312C107.426 30.7995 107.479 30.6732 107.573 30.58C107.667 30.4869 107.794 30.4346 107.927 30.4346H109.945C110.083 30.4346 110.216 30.4889 110.314 30.5855C110.412 30.6821 110.467 30.8131 110.467 30.9497L110.464 45.0422C110.464 45.1609 110.416 45.2747 110.332 45.3588C110.247 45.443 110.132 45.4906 110.011 45.4913H107.501C107.366 45.4913 107.234 45.451 107.123 45.3755C107.012 45.3001 106.926 45.1931 106.878 45.0686C105.9 42.5926 104.911 40.1061 103.912 37.609C103.877 37.5209 103.83 37.4945 103.774 37.5297Z" fill="#006A87"/>
<path d="M85.7645 30.4351H83.6879C83.4218 30.4351 83.2061 30.6491 83.2061 30.9132V45.0136C83.2061 45.2777 83.4218 45.4917 83.6879 45.4917H85.7645C86.0306 45.4917 86.2464 45.2777 86.2464 45.0136V30.9132C86.2464 30.6491 86.0306 30.4351 85.7645 30.4351Z" fill="#006A87"/>
<path d="M94.5312 45.4917H92.2736C92.1712 45.4917 92.073 45.4514 92.0006 45.3796C91.9282 45.3077 91.8876 45.2103 91.8876 45.1087L91.8849 33.7924C91.8849 33.7421 91.8749 33.6923 91.8555 33.6459C91.8361 33.5994 91.8077 33.5572 91.7718 33.5216C91.736 33.486 91.6934 33.4578 91.6466 33.4386C91.5998 33.4193 91.5496 33.4094 91.4989 33.4094L88.9111 33.4068C88.8605 33.4068 88.8103 33.3969 88.7634 33.3776C88.7166 33.3584 88.674 33.3302 88.6382 33.2946C88.6023 33.259 88.5739 33.2168 88.5545 33.1703C88.5351 33.1239 88.5251 33.0741 88.5251 33.0238L88.5225 30.8181C88.5225 30.7165 88.5631 30.6191 88.6355 30.5472C88.7079 30.4754 88.8061 30.4351 88.9085 30.4351H97.9069C97.9578 30.4351 98.0083 30.4451 98.0553 30.4645C98.1023 30.4839 98.145 30.5123 98.1808 30.5482C98.2167 30.584 98.2451 30.6266 98.2643 30.6733C98.2836 30.7201 98.2933 30.7702 98.293 30.8207L98.285 33.0264C98.2843 33.1275 98.2433 33.2243 98.171 33.2955C98.0986 33.3668 98.0009 33.4068 97.8989 33.4068L95.3059 33.4094C95.2035 33.4094 95.1053 33.4498 95.0329 33.5216C94.9605 33.5934 94.9199 33.6909 94.9199 33.7924L94.9172 45.1087C94.9172 45.2103 94.8765 45.3077 94.8041 45.3796C94.7318 45.4514 94.6336 45.4917 94.5312 45.4917Z" fill="#006A87"/>
<path d="M116.915 36.4445H121.516C121.615 36.4445 121.711 36.4838 121.781 36.5536C121.852 36.6235 121.891 36.7182 121.891 36.817L121.888 39.0438C121.888 39.1426 121.849 39.2373 121.779 39.3071C121.708 39.377 121.613 39.4162 121.513 39.4162H116.915C116.816 39.4162 116.72 39.4555 116.65 39.5253C116.58 39.5952 116.54 39.6899 116.54 39.7887V42.0815C116.54 42.1803 116.58 42.2751 116.65 42.3449C116.72 42.4147 116.816 42.454 116.915 42.454H121.777C121.876 42.454 121.972 42.4932 122.042 42.5631C122.112 42.6329 122.152 42.7277 122.152 42.8264L122.147 45.1193C122.147 45.1682 122.137 45.2166 122.118 45.2618C122.099 45.307 122.072 45.3481 122.037 45.3827C122.002 45.4172 121.961 45.4447 121.915 45.4634C121.869 45.4821 121.821 45.4917 121.771 45.4917H113.864C113.765 45.4917 113.669 45.4525 113.599 45.3827C113.529 45.3128 113.489 45.2181 113.489 45.1193V30.8075C113.489 30.7087 113.529 30.614 113.599 30.5441C113.669 30.4743 113.765 30.4351 113.864 30.4351H121.694C121.794 30.4351 121.889 30.4743 121.96 30.5441C122.03 30.614 122.069 30.7087 122.069 30.8075L122.064 33.0343C122.064 33.1331 122.025 33.2278 121.954 33.2977C121.884 33.3675 121.788 33.4068 121.689 33.4068H116.915C116.816 33.4068 116.72 33.446 116.65 33.5159C116.58 33.5857 116.54 33.6804 116.54 33.7792V36.0721C116.54 36.1708 116.58 36.2656 116.65 36.3354C116.72 36.4053 116.816 36.4445 116.915 36.4445Z" fill="#006A87"/>
<path d="M16.6292 33.2178L25.0822 37.8528L16.9629 42.9292L8.45435 38.0183L16.6292 33.2178Z" fill="#5AFFFF"/>
<path d="M33.2576 33.2437L41.1544 37.6579V47.6452L33.2576 42.7343V33.2437Z" fill="#5AFFFF"/>
<path fill-rule="evenodd" clip-rule="evenodd" d="M49.2676 14.5127L24.7429 28.528V57L33.2512 52.1463V33.2734L41.1481 28.6385V47.6415L49.6013 42.8192L49.2676 14.5127Z" fill="#FF6C50"/>
<path fill-rule="evenodd" clip-rule="evenodd" d="M24.7471 28.5275L0 14.4019V42.9291L24.7471 56.9995V47.4445L8.28613 37.9079V28.638L24.7471 37.9326V28.5275Z" fill="#006A87"/>
<path fill-rule="evenodd" clip-rule="evenodd" d="M24.7982 0L0.0510254 14.4567L24.7982 28.5824L49.2672 14.5119L24.7982 0ZM24.7419 9.71127L16.6782 14.4014L24.7419 19.0364L32.8612 14.4014L24.7419 9.71127Z" fill="#5AFFFF"/>
</svg>
